<svg width="529" height="99" viewBox="0 0 529 99" fill="none" xmlns="http://www.w3.org/2000/svg">
<path d="M76.14 39.18L75.69 44.58C74.31 44.46 72.81 44.4 71.19 44.4C69.63 44.4 68.31 44.43 67.23 44.49C66.39 51.09 65.85 58.26 65.61 66H59.31C58.95 64.44 58.77 62.37 58.77 59.79C58.77 57.21 58.83 54.99 58.95 53.13C59.13 51.21 59.34 49.32 59.58 47.46C59.82 45.6 59.94 44.52 59.94 44.22C59.1 44.16 57.12 44.13 54 44.13C50.88 44.13 48.72 44.19 47.52 44.31C40.56 53.67 34.14 60.78 28.26 65.64C22.38 70.44 16.5 72.84 10.62 72.84C7.74 72.84 5.34 71.97 3.42 70.23C1.44 68.49 0.449999 66.18 0.449999 63.3C0.449999 57.84 4.59 52.86 12.87 48.36C21.21 43.86 31.98 40.83 45.18 39.27C46.74 36.87 49.65 33.18 53.91 28.2C58.17 23.16 62.37 18.78 66.51 15.06C68.31 10.86 69.72 7.95 70.74 6.33C71.82 4.65 72.87 3.81 73.89 3.81C74.91 3.81 75.75 4.2 76.41 4.98C77.07 5.76 77.4 6.78 77.4 8.04C77.4 9.24 76.71 11.04 75.33 13.44C74.01 15.78 72.63 19.44 71.19 24.42C69.75 29.34 68.76 33.99 68.22 38.37C71.34 38.37 73.98 38.64 76.14 39.18ZM30.24 57.99C35.22 53.25 38.97 48.75 41.49 44.49C31.41 45.09 23.61 46.98 18.09 50.16C12.63 53.34 9.9 56.73 9.9 60.33C9.9 61.89 10.41 63.12 11.43 64.02C12.51 64.92 13.92 65.37 15.66 65.37C20.34 65.37 25.2 62.91 30.24 57.99ZM61.02 38.37C61.44 36.33 61.98 33.78 62.64 30.72C63.36 27.6 63.78 25.77 63.9 25.23C61.02 27.99 59.01 30.03 57.87 31.35C56.73 32.61 54.72 35.07 51.84 38.73C52.86 38.67 54.09 38.64 55.53 38.64C57.03 38.58 58.26 38.52 59.22 38.46C60.18 38.4 60.78 38.37 61.02 38.37ZM112.984 60.33L113.254 62.67C113.014 62.85 110.224 63.93 104.884 65.91C104.164 69.87 103.234 73.77 102.094 77.61C101.014 81.51 99.9038 84.45 98.7638 86.43C97.6838 88.47 96.3938 90.48 94.8938 92.46C91.8938 96.42 87.8438 98.4 82.7438 98.4C80.2238 98.4 78.2138 97.62 76.7138 96.06C75.2138 94.5 74.4637 92.37 74.4637 89.67C74.4637 79.29 83.1638 70.95 100.564 64.65L105.424 47.55C100.264 55.29 95.6138 60.06 91.4738 61.86C89.4338 62.82 87.2738 63.3 84.9938 63.3C82.7738 63.3 80.9738 62.58 79.5938 61.14C78.2738 59.7 77.6138 57.6 77.6138 54.84C77.6138 52.08 78.5438 48.24 80.4038 43.32C82.3238 38.34 84.4538 34.17 86.7938 30.81L91.2038 32.7C91.0238 32.88 90.1838 34.47 88.6838 37.47C86.0438 42.93 84.7238 46.98 84.7238 49.62C84.7238 52.26 85.2338 54.03 86.2538 54.93C87.2738 55.83 88.7738 56.28 90.7538 56.28C92.7338 56.28 94.9538 55.11 97.4138 52.77C99.9338 50.37 103.804 45.66 109.024 38.64L112.264 40.53C111.784 42.51 110.704 46.11 109.024 51.33C107.404 56.49 106.294 60.45 105.694 63.21L112.984 60.33ZM100.024 67.35C96.2438 69.09 92.9138 71.07 90.0338 73.29C84.6338 77.37 81.9338 81.33 81.9338 85.17C81.9338 86.61 82.3538 87.78 83.1938 88.68C84.0338 89.58 85.0838 90.03 86.3438 90.03C92.3438 90.03 96.9038 82.47 100.024 67.35ZM152.689 56.1L154.579 57.63C153.559 60.15 151.939 62.28 149.719 64.02C147.559 65.76 145.579 66.63 143.779 66.63C142.039 66.63 140.659 66.03 139.639 64.83C138.619 63.57 138.109 61.95 138.109 59.97C138.109 57.99 138.439 55.44 139.099 52.32C136.279 56.76 133.249 60.24 130.009 62.76C126.769 65.28 124.039 66.54 121.819 66.54C118.459 66.54 116.779 64.14 116.779 59.34C116.779 55.26 118.159 50.04 120.919 43.68C123.679 37.32 125.689 33.63 126.949 32.61L131.269 34.5C128.809 38.46 126.949 42.36 125.689 46.2C124.429 50.04 123.799 52.62 123.799 53.94C123.799 55.2 124.189 56.22 124.969 57C125.809 57.78 126.769 58.17 127.849 58.17C130.249 58.17 133.219 55.98 136.759 51.6C140.359 47.16 144.019 40.56 147.739 31.8L152.329 33.87C152.209 34.35 150.829 37.83 148.189 44.31C145.609 50.79 144.319 54.69 144.319 56.01C144.319 57.27 144.589 58.23 145.129 58.89C145.729 59.55 146.299 59.88 146.839 59.88C147.439 59.88 147.889 59.85 148.189 59.79C148.489 59.73 148.789 59.61 149.089 59.43C149.389 59.25 149.629 59.1 149.809 58.98C150.049 58.86 150.319 58.65 150.619 58.35L151.339 57.72C151.459 57.54 151.669 57.27 151.969 56.91C152.329 56.49 152.569 56.22 152.689 56.1ZM185.668 30.81L184.858 34.32C183.838 34.2 182.518 34.14 180.898 34.14C174.898 34.14 171.898 36.12 171.898 40.08C171.898 40.92 173.098 43.38 175.498 47.46C177.958 51.54 179.188 54.27 179.188 55.65C179.188 58.89 178.078 61.44 175.858 63.3C173.698 65.1 170.788 66 167.128 66C162.088 66 158.038 63.21 154.978 57.63L158.398 55.2C159.238 55.86 160.138 56.67 161.098 57.63C162.058 58.53 162.778 59.16 163.258 59.52C164.398 60.54 165.658 61.05 167.038 61.05C168.418 61.05 169.618 60.57 170.638 59.61C171.658 58.59 172.168 57.36 172.168 55.92C172.168 54.42 170.848 51.66 168.208 47.64C165.628 43.62 164.338 40.8 164.338 39.18C164.338 36.24 165.568 33.99 168.028 32.43C170.548 30.87 173.818 30.09 177.838 30.09C181.918 30.09 184.528 30.33 185.668 30.81ZM220.773 59.43L222.843 61.14C220.323 65.34 217.053 67.44 213.033 67.44C209.553 67.44 207.813 65.73 207.813 62.31C207.813 60.33 208.653 57.18 210.333 52.86C212.073 48.48 212.943 45.6 212.943 44.22C212.943 42.48 211.833 41.61 209.613 41.61C207.393 41.61 204.363 44.01 200.523 48.81C196.743 53.55 193.563 59.07 190.983 65.37L185.673 63.48C188.793 47.82 196.953 26.85 210.153 0.569995L214.563 2.01C207.903 15.33 203.133 25.92 200.253 33.78C197.253 41.94 195.003 48.69 193.503 54.03C198.123 46.41 202.083 41.13 205.383 38.19C208.743 35.25 211.653 33.78 214.113 33.78C218.553 33.78 220.773 35.37 220.773 38.55C220.773 40.53 219.663 44.07 217.443 49.17C215.223 54.27 214.113 57.66 214.113 59.34C214.113 61.02 214.923 61.86 216.543 61.86C217.383 61.86 218.793 61.05 220.773 59.43ZM299.351 49.71L305.741 49.62V53.31C305.021 53.19 304.181 53.13 303.221 53.13C302.261 53.13 301.181 53.19 299.981 53.31C299.981 57.93 297.761 62.61 293.321 67.35C288.881 72.09 283.511 75.93 277.211 78.87C270.971 81.87 265.151 83.37 259.751 83.37C256.931 83.37 254.621 82.65 252.821 81.21C251.081 79.77 250.211 77.88 250.211 75.54C250.211 72.06 252.521 68.43 257.141 64.65C261.761 60.87 267.161 57.75 273.341 55.29C279.521 52.83 285.101 51.39 290.081 50.97C289.481 50.07 288.551 49.29 287.291 48.63C286.031 47.97 283.451 46.95 279.551 45.57C275.651 44.13 272.891 42.57 271.271 40.89C269.651 39.15 268.841 36.72 268.841 33.6C268.841 30.48 270.521 26.91 273.881 22.89C277.241 18.87 281.201 15.51 285.761 12.81C290.381 10.05 294.431 8.67 297.911 8.67C299.471 8.67 300.761 9.24 301.781 10.38C302.801 11.46 303.311 12.81 303.311 14.43C303.311 17.07 301.721 20.4 298.541 24.42C295.361 28.38 291.821 31.41 287.921 33.51L285.761 30.45C288.101 29.25 290.141 27.39 291.881 24.87C293.681 22.29 294.581 20.07 294.581 18.21C294.581 16.35 293.591 15.42 291.611 15.42C288.791 15.42 285.551 17.19 281.891 20.73C278.291 24.21 276.491 27.48 276.491 30.54C276.491 32.64 277.031 34.29 278.111 35.49C279.191 36.69 281.921 38.19 286.301 39.99C290.681 41.73 293.801 43.29 295.661 44.67C297.521 45.99 298.751 47.67 299.351 49.71ZM259.211 73.2C259.211 76.08 261.551 77.52 266.231 77.52C268.811 77.52 272.141 76.56 276.221 74.64C280.361 72.78 283.991 70.14 287.111 66.72C290.291 63.36 291.881 59.91 291.881 56.37C291.881 55.95 291.791 55.32 291.611 54.48C283.391 55.26 275.921 57.57 269.201 61.41C262.541 65.25 259.211 69.18 259.211 73.2ZM344.076 59.43L346.146 61.14C343.626 65.34 340.356 67.44 336.336 67.44C332.856 67.44 331.116 65.73 331.116 62.31C331.116 60.33 331.956 57.18 333.636 52.86C335.376 48.48 336.246 45.6 336.246 44.22C336.246 42.48 335.136 41.61 332.916 41.61C330.696 41.61 327.666 44.01 323.826 48.81C320.046 53.55 316.866 59.07 314.286 65.37L308.976 63.48C312.096 47.82 320.256 26.85 333.456 0.569995L337.866 2.01C331.206 15.33 326.436 25.92 323.556 33.78C320.556 41.94 318.306 48.69 316.806 54.03C321.426 46.41 325.386 41.13 328.686 38.19C332.046 35.25 334.956 33.78 337.416 33.78C341.856 33.78 344.076 35.37 344.076 38.55C344.076 40.53 342.966 44.07 340.746 49.17C338.526 54.27 337.416 57.66 337.416 59.34C337.416 61.02 338.226 61.86 339.846 61.86C340.686 61.86 342.096 61.05 344.076 59.43ZM386.882 56.91L388.952 58.44C388.112 60.24 386.552 61.95 384.272 63.57C382.052 65.19 380.012 66 378.152 66C374.612 66 372.842 64.14 372.842 60.42C372.842 58.68 373.292 56.61 374.192 54.21L370.862 57.63C367.622 60.93 364.802 63.15 362.402 64.29C360.062 65.43 357.752 66 355.472 66C353.192 66 351.452 65.37 350.252 64.11C349.112 62.79 348.542 60.99 348.542 58.71C348.542 54.51 350.162 50.37 353.402 46.29C356.642 42.15 360.782 38.79 365.822 36.21C370.862 33.63 375.902 32.31 380.942 32.25L381.122 35.22L377.342 36.03C371.882 37.23 367.052 39.63 362.852 43.23C358.712 46.83 356.642 50.43 356.642 54.03C356.642 57.57 358.082 59.34 360.962 59.34C363.662 59.34 366.992 57.45 370.952 53.67C374.912 49.89 378.212 45.45 380.852 40.35L384.632 42.6C380.912 50.1 379.052 54.87 379.052 56.91C379.052 57.75 379.322 58.47 379.862 59.07C380.462 59.61 381.032 59.88 381.572 59.88C382.172 59.88 382.562 59.85 382.742 59.79C382.922 59.73 383.102 59.67 383.282 59.61C383.462 59.49 383.672 59.34 383.912 59.16C384.212 58.98 384.452 58.8 384.632 58.62C384.872 58.44 385.232 58.17 385.712 57.81C386.192 57.45 386.582 57.15 386.882 56.91ZM415.659 34.14C417.159 34.14 418.389 34.65 419.349 35.67C420.309 36.69 420.789 38.01 420.789 39.63C420.789 42.87 418.929 46.29 415.209 49.89L413.049 48.18C413.889 46.32 414.309 44.97 414.309 44.13C414.309 42.51 413.409 41.7 411.609 41.7C409.809 41.7 408.099 42.84 406.479 45.12C404.859 47.4 402.939 50.94 400.719 55.74C398.559 60.48 396.909 63.84 395.769 65.82L390.639 63.57C393.939 56.07 395.829 51.66 396.309 50.34C397.929 45.66 398.739 39.72 398.739 32.52L403.779 31.17C403.599 35.07 403.329 38.1 402.969 40.26C402.609 42.36 401.739 45.81 400.359 50.61C406.419 39.63 411.519 34.14 415.659 34.14ZM483.382 54.3L485.272 56.1C481.852 62.22 477.922 65.28 473.482 65.28C471.682 65.28 470.272 64.8 469.252 63.84C468.292 62.82 467.812 61.5 467.812 59.88C467.812 58.2 468.802 55.35 470.782 51.33C472.762 47.31 473.812 44.25 473.932 42.15C473.992 41.19 473.692 40.41 473.032 39.81C472.432 39.21 471.592 38.91 470.512 38.91C469.432 38.91 468.322 39.18 467.182 39.72C466.102 40.2 465.022 41.01 463.942 42.15C462.922 43.29 461.962 44.4 461.062 45.48C460.222 46.56 459.262 48.09 458.182 50.07C457.162 52.05 456.292 53.7 455.572 55.02C454.312 57.48 452.512 61.17 450.172 66.09L444.772 64.2C444.772 64.02 445.762 60.63 447.742 54.03C449.722 47.43 450.712 43.5 450.712 42.24C450.712 40.98 450.412 40.08 449.812 39.54C449.212 38.94 448.462 38.64 447.562 38.64C444.862 38.64 441.112 42 436.312 48.72C431.572 55.44 428.542 61.17 427.222 65.91L422.092 64.2C422.392 61.02 423.802 55.32 426.322 47.1C428.842 38.82 430.972 33.18 432.712 30.18L436.762 31.62C434.902 35.76 433.612 39.27 432.892 42.15C432.172 44.97 431.542 48 431.002 51.24C436.162 43.86 440.482 38.7 443.962 35.76C447.442 32.76 450.592 31.26 453.412 31.26C456.472 31.26 458.002 32.79 458.002 35.85C458.002 37.05 457.462 39.42 456.382 42.96C455.362 46.5 454.552 49.29 453.952 51.33C462.232 38.01 469.642 31.35 476.182 31.35C477.802 31.35 479.092 31.86 480.052 32.88C481.012 33.84 481.492 35.31 481.492 37.29C481.492 39.21 480.352 42.42 478.072 46.92C475.852 51.42 474.742 54.27 474.742 55.47C474.742 56.61 474.982 57.45 475.462 57.99C475.942 58.53 476.542 58.8 477.262 58.8C478.822 58.8 480.862 57.3 483.382 54.3ZM526.013 56.91L528.083 58.44C527.243 60.24 525.683 61.95 523.403 63.57C521.183 65.19 519.143 66 517.283 66C513.743 66 511.973 64.14 511.973 60.42C511.973 58.68 512.423 56.61 513.323 54.21L509.993 57.63C506.753 60.93 503.933 63.15 501.533 64.29C499.193 65.43 496.883 66 494.603 66C492.323 66 490.583 65.37 489.383 64.11C488.243 62.79 487.673 60.99 487.673 58.71C487.673 54.51 489.293 50.37 492.533 46.29C495.773 42.15 499.913 38.79 504.953 36.21C509.993 33.63 515.033 32.31 520.073 32.25L520.253 35.22L516.473 36.03C511.013 37.23 506.183 39.63 501.983 43.23C497.843 46.83 495.773 50.43 495.773 54.03C495.773 57.57 497.213 59.34 500.093 59.34C502.793 59.34 506.123 57.45 510.083 53.67C514.043 49.89 517.343 45.45 519.983 40.35L523.763 42.6C520.043 50.1 518.183 54.87 518.183 56.91C518.183 57.75 518.453 58.47 518.993 59.07C519.593 59.61 520.163 59.88 520.703 59.88C521.303 59.88 521.693 59.85 521.873 59.79C522.053 59.73 522.233 59.67 522.413 59.61C522.593 59.49 522.803 59.34 523.043 59.16C523.343 58.98 523.583 58.8 523.763 58.62C524.003 58.44 524.363 58.17 524.843 57.81C525.323 57.45 525.713 57.15 526.013 56.91Z" fill="white"/>
</svg>
