<svg xmlns="http://www.w3.org/2000/svg" width="235" height="138" fill="none" viewBox="0 0 235 138"><path fill="#E96479" d="M78.7891 93.1797H37.1875L23.8086 129.02H48.0273V134H0.566406V129.02H18.6328L66.3867 0.015625H69.4141L115.215 129.02H132.793V134H70.3906V129.02H91.582L78.7891 93.1797ZM39.043 88.1992H77.0312L58.5742 35.7578H58.1836L39.043 88.1992ZM226.641 1.57812L227.227 35.5625H222.637C216.126 15.1849 204.635 4.99609 188.164 4.99609C179.049 4.99609 171.953 7.53516 166.875 12.6133C161.862 17.6263 159.355 22.8346 159.355 28.2383C159.355 33.2513 161.439 37.5156 165.605 41.0312C169.837 44.5469 177.52 47.2812 188.652 49.2344C199.785 51.1224 208.249 53.4661 214.043 56.2656C219.902 59 224.818 63.5898 228.789 70.0352C232.826 76.4805 234.844 83.8698 234.844 92.2031C234.844 105.029 230.645 115.706 222.246 124.234C213.913 132.763 203.561 137.027 191.191 137.027C181.1 137.027 171.042 133.284 161.016 125.797L151.836 134H148.418V97.3789H152.617C156.458 108.902 161.829 117.561 168.73 123.355C175.632 129.15 183.184 132.047 191.387 132.047C199.525 132.047 206.979 129.378 213.75 124.039C220.586 118.635 224.004 111.832 224.004 103.629C224.004 96.7279 221.628 90.9336 216.875 86.2461C212.188 81.4935 204.538 78.2383 193.926 76.4805C183.379 74.6576 175.273 72.5742 169.609 70.2305C163.945 67.8216 159.095 63.6875 155.059 57.8281C151.022 51.9036 149.004 45.3607 149.004 38.1992C149.004 28.3034 152.52 19.4818 159.551 11.7344C166.582 3.92188 176.12 0.015625 188.164 0.015625C198.255 0.015625 207.663 3.20573 216.387 9.58594C218.796 7.30729 220.879 4.63802 222.637 1.57812H226.641Z"/></svg>